<svg width="24" height="24" viewBox="0 0 24 24" fill="none" xmlns="http://www.w3.org/2000/svg">
<path d="M20.2529 3.20995C19.6078 3.07352 18.9545 3.0033 18.2999 3C16.0665 2.99776 13.8796 3.78406 12 5.2652C10.1156 3.80351 7.92903 3.0365 5.70007 3.05525C5.04546 3.05855 4.3922 3.12877 3.74709 3.2652C3.53578 3.30993 3.34441 3.44582 3.20747 3.64839C3.07052 3.85097 2.99698 4.10693 3.0001 4.37017V17.6298C2.99817 17.7922 3.02541 17.9531 3.07988 18.101C3.13435 18.249 3.21471 18.3804 3.31525 18.4859C3.41578 18.5914 3.53402 18.6684 3.66155 18.7114C3.78908 18.7544 3.92276 18.7624 4.05308 18.7348C5.34279 18.4606 6.66414 18.5061 7.9393 18.8686C9.21447 19.2311 10.4177 19.9032 11.478 20.8453L11.586 20.9227H11.685C11.7848 20.9737 11.8919 21 12 21C12.1081 21 12.2152 20.9737 12.315 20.9227H12.414L12.522 20.8453C13.5749 19.8821 14.7747 19.1882 16.0501 18.8048C17.3255 18.4214 18.6506 18.3563 19.9469 18.6133C20.0772 18.6409 20.2109 18.6329 20.3385 18.5899C20.466 18.5469 20.5842 18.4699 20.6848 18.3644C20.7853 18.2589 20.8656 18.1275 20.9201 17.9795C20.9746 17.8315 21.0018 17.6706 20.9999 17.5083V4.24862C20.9905 3.99686 20.9114 3.75659 20.7755 3.56767C20.6396 3.37875 20.4552 3.25253 20.2529 3.20995ZM11.1 17.895C9.43492 16.8195 7.58151 16.2582 5.70007 16.2597C5.40307 16.2597 5.10607 16.2597 4.80008 16.2597V5.20995C5.09982 5.18874 5.40032 5.18874 5.70007 5.20995C7.62009 5.20734 9.49822 5.89911 11.1 7.1989V17.895ZM19.1999 16.3039C18.8939 16.3039 18.5969 16.3039 18.2999 16.3039C16.4185 16.3024 14.5651 16.8637 12.9 17.9392V7.1989C14.5018 5.89911 16.3799 5.20734 18.2999 5.20995C18.5997 5.18874 18.9002 5.18874 19.1999 5.20995V16.3039Z" fill="white"/>
</svg>
