<svg id="logo_mark" data-name="logo mark" xmlns="http://www.w3.org/2000/svg" xmlns:xlink="http://www.w3.org/1999/xlink" width="240" height="400" viewBox="0 0 240 400">
  <defs>
    <clipPath id="clip-path">
      <rect id="長方形_39" data-name="長方形 39" width="240" height="400" fill="#fff"/>
    </clipPath>
  </defs>
  <g id="グループ_9" data-name="グループ 9" clip-path="url(#clip-path)">
    <path id="パス_32" data-name="パス 32" d="M234.194,307.169c-2.075.828-1.661,2.26-5.161,2.614v1.307c-4.688.539-6.823,3.143-10.968,3.921v1.307c-2.672.131-3.436.31-5.161,1.307v.654h-1.29l-.645,1.307h-1.29l-.645,1.307H207.1v.654h-1.29v.654h-1.29l-.645,1.307h-1.29l-.645,1.307-3.871,1.307v.654a8.151,8.151,0,0,1-3.871,1.961c-.957,3.393-2.4,2.249-4.516,3.921l-1.29,2.614H187.1v.654l-2.581,1.961-3.226,3.921-1.29.654v1.307L174.194,349V350.3l-5.161,4.575v1.307l-1.29.654v1.307l-2.581,1.961-.645,1.961-1.29.654-1.936,2.614h-.645v1.307H160a5.147,5.147,0,0,0-1.29,2.614l-2.581.654c-.677,3.061-2.57,3.627-3.871,5.882h-1.29c-.468,1.884-.694,2.168-2.581,2.614v1.307l-1.935.654-.645,1.961-1.935.654-.645,1.307h-1.29l-.645,1.307H140l-3.226,3.921-2.581.654-.645,1.307-2.581.654-1.29,1.961h-1.935v.654l-10.968-.654v-.654c-1.452-1.051-1.892-2.026-3.871-2.614v-1.307h-.645a13.763,13.763,0,0,0-1.936-2.614v-.654h-1.29c-.86-3.121-3.059-2.772-3.871-5.882-3.005-.92-1.29-2.369-4.516-3.268v-1.307l-1.935-.654-1.935-3.268h-1.29l-1.29-1.307v-1.307l-1.29-1.307h-1.29l-1.29-1.307v-1.307l-1.935-.654v-.654a4.913,4.913,0,0,0-2.581-1.307v-1.307c-3.2-.773-2.677-2.418-6.452-2.614v-1.961a13.036,13.036,0,0,1-4.516-1.961l-.645-1.307H72.9v-.654l-3.226-.654-.645-1.307H67.1L65.806,349H62.581l-.645-1.307-3.871.653v-.653l-5.806-.654-.645-1.961H49.032v-.654c-1.565-.4-1.419-.692-2.581-1.307.4-1.71,4.005-7.712,5.161-8.5l3.226-.654.645-1.307L58.065,332l.645-1.307,3.871-1.307c.645-3.268,3.188-4.7,6.452-5.228v-1.307l2.581-.654v-.654h1.935l1.29-1.961H78.71v-.654H80v-.654c.984-.229,6.844,1.53,9.032.654l.645-1.307,3.226.654v-.654h2.581v.654h5.806v.654c2.274.806,4.935.425,6.452,1.961,2.473,1.765.081,1.835,1.29,3.921h.645v.654l3.226-.654.645,4.575h.645l.645,1.307,3.226-.654.645-1.961h.645c.952-2.663-1.28-4.335,0-7.189l1.29-.654v-1.961l1.29-.654a6.406,6.406,0,0,0,1.29-3.921h1.29l.645-1.961,1.29-.654v-1.307l1.29-.654v-1.307h.645v-1.307l4.516-3.921c.591-.877.452-2.576,1.29-3.268h1.29v-.654l1.935-1.307V295.4l1.29-.654v-1.307l1.935-.654.645-1.961,1.935-.654c.694-.588,1.7-3.4,1.935-4.575,1.758-.5,1.468-.158,1.935-1.961,3.231-.855,3.484-3.529,5.161-5.882l3.226-2.614v-1.307l3.226-1.961.645-1.961,1.935-1.307V267.3l1.29-.654v-1.307l3.226-2.614V261.42h.645l.645-2.614h.645v-1.961h.645v-1.307h.645v-1.307l1.29-.654.645-1.961h.645a4.619,4.619,0,0,0,1.29-3.268h1.29c.247-1.438.4-.768.645-1.307-.2-1.258-.941-.719,0-1.961l1.29-.654v-1.307l1.29-.654.645-3.921L180,237.239l1.29-5.882c-.118-.376-1.591-.359-1.29-1.307l1.29-.654v-1.961h.645l-.645-5.882.645-3.921h-.645v-2.614h-.645L180,209.79h-.645l-.645-2.614h-.645l.645-4.575h1.935c1.382-2.936,4.269-5.6,6.452-7.843l1.935-1.307v-1.307c1.312-1.661,2.328.06,3.226-3.268h1.29v-1.961h1.29v-1.307l1.29-.654v-3.268l1.936-.654.645-1.307c2.161-1.585,2.887-.681,1.935-3.921l1.29.654V175.8h.645l-.645-1.961s.677.071.645-1.307c-.247-.354-1.086-.12-.645-1.307l1.29-.654.645-2.614h1.29c-.387-1.307.091-.561-.645-1.307.355-2.8,1.495-2.718,2.581-4.575h1.29V160.12c-.183-.485-1.441-.267-1.29-1.307h.645c.489-1.781.151-1.487,1.935-1.961l.645-3.921,1.936-.654.645-6.536,1.29-.654v-9.15h.645v-3.921h.645l-.645-5.882h.645l.645-3.268h.645v-.654h-.645v-8.5h-.645v-.654h.645V111.1h-.645v-.654h.645l.645-1.961-1.935-1.307s1.043-5.827.645-7.189h-.645V96.072l-1.29-.654.645-1.961h-.645V92.151H212.9V88.883l-1.29-.654V86.269h-.645V84.308h-.645l-.645-3.921-1.29-.654V78.426l-1.29-.654-.645-2.614h-.645V72.544l-1.935-1.307V68.623l-1.29-.654-1.935-5.882H200V60.78h-.645l-.645-2.614h-.645V55.552l-1.29-.654-1.935-6.536h-1.29c-.21-1.46-.048-1.716-.645-2.614h-.645V44.441l-1.29-.654V41.827h-.645V40.52h-.645l-1.29-3.921h-.645V33.985l-1.29-.654V31.37l-1.935-1.307V27.449l-1.935-1.307-.645-5.228h-.645l-.645-2.614-1.935-1.307V13.071h-.645l-1.29-3.921h-.645V7.843h-.645V6.536h-.645V4.575h-.645V3.268h-.645V1.961H172.9L171.613,0h-3.226c-.769,2.816-1.989,2.238-3.226,3.921l-.645,1.961h-1.29l-3.871,4.575h-.645v1.307c-3.661,1.062-3.237,4.88-7.742,5.882-1.081,3.97-5.387,3.867-6.452,7.843A8.876,8.876,0,0,0,140,28.1l-.645,1.307-2.581.654-1.935,2.614h-1.29l-2.581,3.268h-1.29l-1.935,2.614h-1.29c-.871,2.9-.355.937-2.581,1.961v.654h-1.936l-.645,1.307-1.935.654v.654h-1.29v.654h-1.29v.654h-1.29l-1.29,1.307H112.9l-1.936,2.614h-1.935l-1.29,1.961h-1.935l-1.29,1.961-2.581.654L100,56.205H98.71v.654h-1.29v.654H94.839v.654h-1.29v.654h-1.29l-.645,1.307H89.677l-.645,1.307h-1.29L87.1,62.741h-1.29v.654H83.871L83.226,64.7H81.29v.654l-2.581.654v.654h-1.29l-1.935,2.614-1.935.654v1.307c-3.575.839-4.661,3.224-8.387,3.921l-.645,1.961h-1.29l-1.29,2.614h-1.29a14.306,14.306,0,0,0-5.161,4.575l-3.871.654v1.307l-1.935.654-1.935,2.614h-1.29l-1.935,2.614-1.935,1.307v.654H41.29L38.71,98.033h-1.29c-.495,1.781-.156,1.487-1.935,1.961V101.3h-1.29v1.307l-1.935.654-1.935,2.614h-.645v1.961l-1.935,1.307v1.307l-1.935.654-.645,1.307-2.581,1.961c-1.312,1.868-1.253,3.377-3.226,4.575v1.961H17.419a9.82,9.82,0,0,1-2.581,4.575h-.645v1.307l-1.29.654-.645,2.614h-.645a7.036,7.036,0,0,0-1.935,3.268H8.387c-.247,3.622-.726,2.407-1.935,4.575v1.307l-1.29.654v2.614l-1.29.654v1.307H3.226v2.614H2.581v1.307H1.935v1.961H1.29l-.645,11.11H0v.654H.645v4.575H1.29a1.774,1.774,0,0,1-.645,1.961L1.29,174.5h.645V175.8h.645v1.961h.645l.645,5.882h.645v1.307h.645v1.961h.645v4.575l1.29.654V194.1h.645v1.961h.645v1.961h.645v1.961c.758,1.868,2.108,2.925,2.581,5.228H12.9c.543,4.651,3.543,4.183,4.516,7.843A5.645,5.645,0,0,1,20,214.364v.654h1.935l.645,1.307c1.7,1.519,3.086,1.972,6.452,1.961-1.161-5.708-4.575-5.31-7.742-8.5-1.64-1.65-1.86-3.867-4.516-4.575l-.645-1.961h-.645v-1.961l-1.29-.654-1.29-3.921h-.645v-1.307h-.645c-.183-.757,1.167-1.149.645-2.614h-.645V191.49l-1.29-.654v-1.961H9.677v-2.614H9.032v-2.614H8.387V180.38l-1.29-.654v-4.575l-1.29-.654V171.23l-1.29-.654V166h.645a1.719,1.719,0,0,0-.645-1.961v-9.8h.645v-1.961h.645l-.645-2.614h.645v-1.307h.645v-1.307H7.1v-1.961l1.29-.654.645-3.921,1.29-.654.645-3.268,1.935-.654.645-2.614,1.29-.654.645-2.614,1.29-.654v-1.961l3.871-3.268v-1.307l2.581-1.961V119.6l1.935-.654,1.29-1.307v-1.307H27.1l3.226-3.921h1.29c.677-3.2,2.575-4.657,4.516-6.535l.645-1.307,1.935-.654v-1.307L41.29,101.3V99.993l4.516-3.921,1.29-1.961h1.29L50.323,91.5h1.29l1.29-1.961h1.29l1.29-1.961h1.29l.645-1.307h1.29l.645-1.307H61.29v-.654l1.935-.654V82.347l1.935-.654,3.226-3.921,3.226-.654,2.581-3.268h1.29l1.29-1.961,3.871-1.307.645-1.307,2.581-.654.645-1.307h1.935c1.93-.91,1.914-1.863,5.161-1.961V63.394c6.5-.294,8.919-5.392,14.194-6.536V55.552a19.99,19.99,0,0,0,5.806-2.614v-.654l3.871-1.307.645-1.307h1.29l.645-1.307,3.871-1.307.645-1.307h1.29l2.581-3.268h1.935v-.654h1.29l2.581-3.268,2.581-.654,2.581-3.921L140,33.331l1.935-2.614h1.29l.645-1.307c1.882-1.3,2.651-1.193,3.871-3.268h1.29V24.835h1.29v-.654a13.617,13.617,0,0,0,2.581-1.961h.645V20.914c2.624-.692,2.237-2.064,3.871-3.268h1.29l3.871-5.228h1.29V11.11l1.935-.654V9.8c1.3-1.155,2.032-1.215,2.581-3.268h1.935l.645,3.268L172.9,11.11l.645,3.268,1.29.654v1.307h.645v2.614l1.29.654.645,1.961h.645v2.614h.645v1.307l1.29.654V28.1h.645l.645,2.614h.645l.645,3.268h.645V36.6l2.581,1.961a26.316,26.316,0,0,1,1.29,5.228h1.29l1.936,5.882h.645l1.29,5.882c1.167,2.3,2.93,3.84,3.226,7.189h1.29c.785,3.878,2.876,6.437,3.226,10.457,1.29.392.554-.093,1.29.654h.645v1.961l1.29.654V79.08l1.935,1.307v1.307h.645v2.614h.645v1.307l1.29.654v2.614h.645v1.961h.645l1.29,6.535h.645v3.268h.645v13.725c1.925,7.478-.285,21.382-2.581,28.756V146.4h-.645v2.614h-.645v1.961H207.1v2.614h-.645v1.307h-.645V156.2l-1.29.654v2.614l-1.29.654v3.268h-.645l-.645,3.268h-.645v1.307h-.645v1.961l-1.29.654v1.307h-.645l-1.29,3.921-1.29.654v1.307l-1.936,1.307v1.307l-1.935,1.307v1.307l-1.29.654v1.961l-5.161,4.575-.645,1.961h-1.29c-.694,2.6-2.672,3.17-3.871,5.228h-1.29c-.446,1.781-.876,1.476-1.29,3.268h-1.29c-.4-2.091-2.065-7.314-3.226-8.5-.495-1.776-.156-1.487-1.935-1.961l.645-1.961h-.645l-.645-2.614-1.935-1.307-.645-3.268H167.1c-1.086-2.059-1.387-3.284-3.871-3.921V175.8a17.393,17.393,0,0,1-4.516-1.961v-.654h-3.226v-.654H152.9v.654l-7.742,1.307-.645,1.307c-1.306,1.133-2.005,1.209-4.516,1.307v1.307l-1.935.654c-.753-.523.263-.7-.645-.654l-.645,1.307-3.226.654v.654h-1.29v.654h-1.29l-.645,1.307a8.647,8.647,0,0,1-4.516,2.614c-.468,1.884-.694,2.168-2.581,2.614-.758,2.756-2.382,2.7-3.871,4.575h-.645v1.961h-.645v1.307h-.645v1.307h-.645l-.645,1.961-1.29.654v3.268h-.645v2.614h-.645c-.2,1.089.613,1.149.645,1.307v15.032l1.29.654v2.614l1.29.654v1.307l1.29.654c.941,1.612-.167,2.075,0,2.614h.645v2.614h.645c.78,1.71,1.258,3.017,1.935,4.575a32.128,32.128,0,0,0,12.258-3.268h1.935v-.654h1.29v-.654h1.936l3.226-3.921h1.936v-.654h1.29v-.654h1.29l.645-1.307,3.226-.654.645-1.307,3.226-.654.645-1.307h1.29l1.29-1.961,2.581-.654,1.936-2.614h1.29l1.29-2.614h1.29l1.29-1.961h1.29l4.516-5.228h1.29c.677,1.737,1.376,4.657,1.935,6.535v3.268h.645l-.645,16.992h-.645v1.307h-.645l-.645,3.268-1.29.654v1.307h-.645v1.307h-.645v1.307h-.645v1.307l-1.29,1.307V247.7l-2.581,1.961-.645,2.614-1.29.654v1.961h-.645v1.307h-.645V257.5l-3.226,2.614v1.961l-1.29.654v1.307l-1.935,1.307v1.307l-1.935,1.307v1.961c-.108.191-.941.626-1.29,1.307H152.9c-.769,2.827-2.027,2.238-3.226,3.921v1.307l-1.29.654-3.226,4.575h-1.29c-.952,3.447-4.258,4.15-5.161,7.843-1.613.436-1.054.338-1.936,1.307h-.645v1.307l-1.935,1.307V295.4l-1.935.654v.654c-1.656,1.454-2.9,2.369-3.871,4.575H127.1c-.505,1.939-1.511,2.582-2.581,3.921h-.645v1.307h-.645v1.307h-.645v1.307l-1.29.654c-.511.806-.511,2.778-1.29,3.268h-1.29l-.645,2.614-1.29.654v1.961c-.1.18-.946.637-1.29,1.307l-11.613-3.921-7.742-.654c-.9.153.263.7-.645.654v-.654H90.968v-.653l-14.839,1.961v.654H74.194v.654H71.613l-1.29,1.961-3.226.654-.645,1.307H64.516l-.645,1.307h-1.29v.654l-1.935.654v1.307a5.034,5.034,0,0,0-2.581,1.307v.654c-2.14,1.427-3.07.071-3.871,3.268-2.909.343-4.091,1.634-6.452,2.614l-.645,1.961c-3.22.822-1.554.871-2.581,3.268h-.645l-.645,3.268H40v1.961l-1.935.654c.4,1.585.683,1.438,1.29,2.614H40v.654h2.581v.653l2.581.654v.654h3.871l.645,1.307h1.935v.653h4.516v.654h4.516v.654h1.29v.654h1.935l.645,1.307c1.409.85,3.737.5,5.161,1.307l1.29,1.961,2.581.653.645,1.307h1.29l3.226,3.921,3.226.654v.654l1.935,1.307v1.307a6.915,6.915,0,0,1,3.226,1.961v.654l1.935.653v1.307l1.935.654,1.936,2.614h.645V377.1l3.226,1.961v1.307c3.645.975,5.14,5.621,7.742,7.843v1.307c3.892,1.046,4.366,5.217,7.1,7.189,1.559,1.122,2.833.969,3.871,2.614h5.806c.161.038.215.833,1.29.654v-.654H127.1v-.654l3.871-.654c.914-3.573,2.161-1.7,4.516-3.268l.645-1.307a10.4,10.4,0,0,1,4.516-1.961v-1.307l1.29-.654v-.653h1.29l2.581-3.268h1.29l3.226-3.921h1.29v-.654l1.935-1.307v-1.307l3.226-2.614,7.1-9.15h1.29c.726-2.832,2.118-2.26,3.226-3.921v-1.307h.645v-1.307l1.29-.654.645-1.961h1.29c.183-1.547,1.1-3.889,1.936-4.575h1.29l.645-1.307c1-.953,2.339-1.552,3.226-2.614h1.29l.645-2.614h1.29v-1.307l1.29-.654c1.247-1.394,2.683-2.494,3.226-4.575,2.188-.637,4.839-3.687,6.452-5.228l.645-1.307h1.29l.645-1.307h1.29l1.29-1.961,3.226-.654,2.581-3.268h1.29v-.654h1.29v-.654h1.935l.645-1.307,3.226-.654.645-1.307h1.935l.645-1.307,3.226-.654.645-1.307h1.935l.645-1.307h2.581v-.654c1.651-1.138,1.618-1.253,4.516-1.307V313.7l2.581-.654v.654c.7-.545.984-1.765,1.29-1.961h1.935v-.654c2.161-1.2,3.833-1.9,4.516-4.575l-5.806.654m-65.806-99.34-1.935,2.614-1.935.654-1.29,1.961h-1.29L160,215.672h-1.29l-.645,1.307-1.935.654v.654h-1.29l-.645,1.307a11.857,11.857,0,0,1-4.516,1.961v1.307c-2.258.534-3.489,1.71-5.161,2.614h-1.29v.654h-1.29v.654H140l-1.935,2.614h-1.935l-.645,1.307h-1.29v.654l-3.226.654-.645,1.307h-5.161c-.565-2.505-1.715-4.2-1.936-7.189-1.29-.392-.554.093-1.29-.654h-.645l-.645-3.921H120v-3.268l-1.29-.654v-1.307h-.645v-.654h.645l-.645-3.921h.645V209.79h.645l-.645-3.921c.032-.147.823-.229.645-1.307a1.722,1.722,0,0,1-.645-1.961l1.29-.654V200.64h.645l.645-2.614h.645l.645-3.268,2.581-1.961.645-1.307h1.29l3.226-4.575h1.935l1.29-1.961h2.581l1.29-1.961,5.806-1.961.645-1.307,1.935-.654v-.654l3.871-.654v-.654h1.936v-.654l1.29.654v-.654c4.118.158,5.6,1.863,7.742,3.921l.645,1.307h1.29l.645,1.307h.645v1.961l1.935,1.307.645,1.961h.645l.645,3.268,1.29.654V194.1l1.29.654v1.961h.645v1.961h.645c.812,2.238-.521,2.189,1.29,3.921-.247,4.515-2.269,3.039-4.516,5.228" transform="translate(0 0.002)" fill="#fff"/>
  </g>
</svg>
