<svg width="24" height="24" viewBox="0 0 24 24" fill="none" xmlns="http://www.w3.org/2000/svg">
<path d="M18.8478 7.5H15.9131V6.6C15.9131 5.64522 15.5008 4.72955 14.7669 4.05442C14.0331 3.37928 13.0378 3 12 3C10.9622 3 9.96691 3.37928 9.23307 4.05442C8.49923 4.72955 8.08696 5.64522 8.08696 6.6V7.5H5.15218C4.89273 7.5 4.64391 7.59482 4.46045 7.7636C4.27699 7.93239 4.17392 8.16131 4.17392 8.4V18.3C4.17392 19.0161 4.48312 19.7028 5.0335 20.2092C5.58388 20.7155 6.33035 21 7.1087 21H16.8913C17.6697 21 18.4161 20.7155 18.9665 20.2092C19.5169 19.7028 19.8261 19.0161 19.8261 18.3V8.4C19.8261 8.16131 19.723 7.93239 19.5396 7.7636C19.3561 7.59482 19.1073 7.5 18.8478 7.5ZM10.0435 6.6C10.0435 6.12261 10.2496 5.66477 10.6165 5.32721C10.9835 4.98964 11.4811 4.8 12 4.8C12.5189 4.8 13.0166 4.98964 13.3835 5.32721C13.7504 5.66477 13.9565 6.12261 13.9565 6.6V7.5H10.0435V6.6ZM17.8696 18.3C17.8696 18.5387 17.7665 18.7676 17.583 18.9364C17.3996 19.1052 17.1508 19.2 16.8913 19.2H7.1087C6.84925 19.2 6.60043 19.1052 6.41697 18.9364C6.23351 18.7676 6.13044 18.5387 6.13044 18.3V9.3H8.08696V10.2C8.08696 10.4387 8.19003 10.6676 8.37349 10.8364C8.55695 11.0052 8.80577 11.1 9.06522 11.1C9.32468 11.1 9.5735 11.0052 9.75696 10.8364C9.94042 10.6676 10.0435 10.4387 10.0435 10.2V9.3H13.9565V10.2C13.9565 10.4387 14.0596 10.6676 14.2431 10.8364C14.4265 11.0052 14.6753 11.1 14.9348 11.1C15.1942 11.1 15.4431 11.0052 15.6265 10.8364C15.81 10.6676 15.9131 10.4387 15.9131 10.2V9.3H17.8696V18.3Z" fill="white"/>
</svg>
