<svg width="15" height="25" viewBox="0 0 15 25" fill="none" xmlns="http://www.w3.org/2000/svg">
<g clip-path="url(#clip0_233_221)">
<path d="M14.6371 19.1981C14.5074 19.2498 14.5333 19.3393 14.3146 19.3614V19.4431C14.0216 19.4768 13.8881 19.6396 13.6291 19.6882V19.7699C13.4621 19.7781 13.4143 19.7893 13.3065 19.8516V19.8924H13.2259L13.1856 19.9741H13.1049L13.0646 20.0558H12.9438V20.0967H12.8631V20.1376H12.7825L12.7422 20.2192H12.6616L12.6213 20.3009L12.3793 20.3826V20.4235C12.3112 20.4855 12.2276 20.5278 12.1374 20.5461C12.0776 20.7581 11.9874 20.6866 11.8551 20.7911L11.7745 20.9545H11.6938V20.9954L11.5324 21.1179L11.3308 21.363L11.2502 21.4039V21.4856L10.8871 21.8125V21.8937L10.5646 22.1797V22.2614L10.4839 22.3022V22.3839L10.3226 22.5065L10.2823 22.6291L10.2017 22.6699L10.0807 22.8333H10.0404V22.915H10C9.95794 22.9606 9.92995 23.0173 9.91938 23.0784L9.75806 23.1192C9.71575 23.3106 9.59744 23.3459 9.51612 23.4869H9.4355C9.40625 23.6046 9.39212 23.6224 9.27419 23.6502V23.7319L9.15325 23.7728L9.11294 23.8954L8.992 23.9363L8.95169 24.0179H8.87106L8.83075 24.0996H8.75L8.54838 24.3447L8.38706 24.3856L8.34675 24.4673L8.18544 24.5081L8.10481 24.6307H7.98387V24.6716L7.29838 24.6307V24.5898C7.20763 24.5241 7.18012 24.4632 7.05644 24.4264V24.3447H7.01613C6.98239 24.2857 6.94177 24.2309 6.89512 24.1814V24.1405H6.8145C6.76075 23.9454 6.62331 23.9672 6.57256 23.7729C6.38475 23.7154 6.49194 23.6248 6.29031 23.5686V23.4869L6.16937 23.4461L6.04844 23.2418H5.96781L5.88719 23.1601V23.0784L5.80656 22.9967H5.72594L5.64531 22.9151V22.8334L5.52437 22.7925V22.7516C5.48002 22.7088 5.42381 22.6804 5.36306 22.6699V22.5882C5.16306 22.5399 5.19575 22.4371 4.95981 22.4249V22.3023C4.8588 22.2798 4.76301 22.2382 4.67756 22.1798L4.63725 22.0981H4.55625V22.0572L4.35463 22.0163L4.31431 21.9346H4.19375L4.11287 21.8125H3.91131L3.871 21.7308L3.62906 21.7716V21.7308L3.26619 21.6899L3.22587 21.5674H3.0645V21.5265C2.96669 21.5015 2.97581 21.4833 2.90319 21.4448C2.92819 21.3379 3.1535 20.9628 3.22575 20.9136L3.42738 20.8727L3.46769 20.791L3.62906 20.75L3.66937 20.6683L3.91131 20.5866C3.95163 20.3824 4.11056 20.2929 4.31456 20.2599V20.1782L4.47587 20.1373V20.0964H4.59681L4.67744 19.9739H4.91937V19.933H5V19.8921C5.0615 19.8778 5.42775 19.9878 5.5645 19.933L5.60481 19.8513L5.80644 19.8922V19.8513H5.96775V19.8922H6.33063V19.9331C6.47275 19.9834 6.63906 19.9596 6.73387 20.0556C6.88844 20.1659 6.73894 20.1703 6.8145 20.3007H6.85481V20.3416L7.05644 20.3007L7.09675 20.5866H7.13706L7.17737 20.6683L7.379 20.6274L7.41931 20.5049H7.45962C7.51912 20.3384 7.37962 20.2339 7.45962 20.0556L7.54025 20.0147V19.8921L7.62087 19.8512C7.67405 19.7807 7.7024 19.6945 7.7015 19.6062H7.78212L7.82244 19.4836L7.90306 19.4428V19.3611L7.98369 19.3202V19.2385H8.024V19.1568L8.30625 18.9118C8.34319 18.8569 8.3345 18.7508 8.38688 18.7075H8.4675V18.6666L8.58844 18.5849V18.4625L8.66906 18.4216V18.3399L8.79 18.2991L8.83031 18.1765L8.95125 18.1356C8.99463 18.0989 9.0575 17.9231 9.07219 17.8497C9.18206 17.8184 9.16394 17.8398 9.19312 17.7271C9.39506 17.6737 9.41088 17.5066 9.51569 17.3595L9.71731 17.1961V17.1144L9.91894 16.9919L9.95925 16.8693L10.0802 16.7876V16.7062L10.1608 16.6654V16.5837L10.3624 16.4203V16.3388H10.4028L10.4431 16.1754H10.4834V16.0528H10.5237V15.9711H10.564V15.8894L10.6446 15.8486L10.6849 15.726H10.7253C10.778 15.6712 10.807 15.5978 10.8059 15.5218H10.8865C10.9019 15.4319 10.9115 15.4738 10.9268 15.4401C10.9143 15.3614 10.868 15.3951 10.9268 15.3175L11.0074 15.2766V15.1949L11.0881 15.1541L11.1284 14.909L11.25 14.8274L11.3306 14.4598C11.3232 14.4363 11.2312 14.4374 11.25 14.3781L11.3306 14.3372V14.2147H11.3709L11.3306 13.8471L11.3709 13.602H11.3306V13.4386H11.2903L11.25 13.1119H11.2097L11.1694 12.9485H11.1291L11.1694 12.6626H11.2903C11.3767 12.4791 11.5571 12.3126 11.6936 12.1724L11.8145 12.0907V12.009C11.8965 11.9052 11.96 12.0128 12.0161 11.8048H12.0968V11.6822H12.1774V11.6005L12.258 11.5596V11.3554L12.379 11.3145L12.4193 11.2328C12.5544 11.1338 12.5997 11.1903 12.5402 10.9878L12.6209 11.0286V10.9875H12.6612L12.6209 10.8649C12.6209 10.8649 12.6632 10.8694 12.6612 10.7832C12.6457 10.7611 12.5933 10.7758 12.6209 10.7016L12.7015 10.6607L12.7418 10.4973H12.8224C12.7982 10.4156 12.8281 10.4622 12.7821 10.4156C12.8043 10.2406 12.8756 10.2457 12.9434 10.1297H13.0241V10.0075C13.0126 9.97719 12.934 9.99081 12.9434 9.92581H12.9838C13.0143 9.8145 12.9932 9.83288 13.1047 9.80325L13.145 9.55819L13.266 9.51731L13.3063 9.10881L13.3869 9.06794V8.49606H13.4272V8.251H13.4676L13.4272 7.88338H13.4676L13.5079 7.67912H13.5482V7.63825H13.5079V7.107H13.4676V7.06612H13.5079V6.94375H13.4676V6.90287H13.5079L13.5482 6.78031L13.4272 6.69863C13.4272 6.69863 13.4924 6.33444 13.4676 6.24931H13.4272V6.0045L13.3466 5.96362L13.3869 5.84106H13.3466V5.75944H13.3062V5.55519L13.2256 5.51431V5.39181H13.1853V5.26925H13.145L13.1047 5.02419L13.0241 4.98331V4.90163L12.9434 4.86075L12.9031 4.69737H12.8628V4.534L12.7419 4.45231V4.28894L12.6613 4.24806L12.5403 3.88044H12.5V3.79875H12.4597L12.4194 3.63538H12.3791V3.472L12.2984 3.43112L12.1775 3.02262H12.0969C12.0838 2.93137 12.0939 2.91538 12.0566 2.85925H12.0162V2.77756L11.9356 2.73669V2.61419H11.8953V2.5325H11.855L11.7744 2.28744H11.7341V2.12406L11.6534 2.08319V1.96063L11.5325 1.87894V1.71556L11.4116 1.63388L11.3713 1.30712H11.3309L11.2906 1.14375L11.1697 1.06206V0.816938H11.1294L11.0487 0.571875H11.0084V0.490187H10.9681V0.4085H10.9278V0.285937H10.8875V0.20425H10.8472V0.122562H10.8062L10.7258 0H10.5242C10.4761 0.176 10.3999 0.139875 10.3226 0.245063L10.2823 0.367625H10.2016L9.95969 0.653562H9.91938V0.73525C9.69056 0.801625 9.71706 1.04025 9.4355 1.10287C9.36794 1.351 9.09881 1.34456 9.03225 1.59306C8.92395 1.61796 8.82561 1.67481 8.75 1.75625L8.70969 1.83794L8.54838 1.87881L8.42744 2.04219H8.34681L8.1855 2.24644H8.10487L7.98394 2.40981H7.90331C7.84888 2.59106 7.88113 2.46838 7.742 2.53238V2.57325H7.621L7.58069 2.65494L7.45975 2.69581V2.73669H7.37913V2.77756H7.2985V2.81844H7.21788L7.13725 2.90013H7.05625L6.93525 3.0635H6.81431L6.73369 3.18606H6.61275L6.53212 3.30862L6.37081 3.3495L6.25 3.51281H6.16937V3.55369H6.08875V3.59456H5.92744V3.63544H5.84681V3.67631H5.76619L5.72587 3.758H5.60481L5.5645 3.83969H5.48387L5.44375 3.92131H5.36312V3.96219H5.24194L5.20162 4.04375H5.08063V4.08462L4.91931 4.1255V4.16638H4.83869L4.71775 4.32975L4.59681 4.37063V4.45231C4.37338 4.50475 4.3055 4.65381 4.07263 4.69737L4.03231 4.81994H3.95169L3.87106 4.98331H3.79044C3.66121 5.05089 3.55047 5.14906 3.46788 5.26925L3.22594 5.31012V5.39181L3.105 5.43269L2.98406 5.59606H2.90344L2.7825 5.75944L2.66156 5.84113V5.882H2.58063L2.41937 6.12706H2.33875C2.30781 6.23837 2.329 6.22 2.21781 6.24963V6.33125H2.13719V6.41294L2.01625 6.45381L1.89531 6.61719H1.855V6.73975L1.73406 6.82144V6.90312L1.61312 6.944L1.57281 7.02569L1.4115 7.14825C1.3295 7.265 1.33319 7.35931 1.20987 7.43419V7.55675H1.08869C1.06188 7.66494 1.00611 7.76379 0.927375 7.84269H0.887062V7.92438L0.806437 7.96525L0.766125 8.12862H0.725812C0.66754 8.18434 0.625703 8.25499 0.604875 8.33288H0.524188C0.50875 8.55925 0.478813 8.48331 0.40325 8.61881V8.7005L0.322625 8.74137V8.90475L0.242 8.94563V9.02731H0.201625V9.19069H0.161313V9.27238H0.120937V9.39494H0.080625L0.0403125 10.0893H0V10.1302H0.0403125V10.4161H0.080625C0.0875334 10.4382 0.087361 10.4619 0.080132 10.4839C0.0729031 10.5059 0.0589797 10.525 0.0403125 10.5387L0.080625 10.9062H0.120937V10.9875H0.16125V11.1101H0.201562L0.241875 11.4777H0.282187V11.5594H0.3225V11.6819H0.362812V11.9679L0.443437 12.0087V12.1313H0.48375V12.2538H0.524063V12.3764H0.564375V12.4989C0.61175 12.6157 0.696125 12.6817 0.725688 12.8257H0.80625C0.840187 13.1164 1.02769 13.0871 1.0885 13.3159C1.14854 13.3287 1.20421 13.3569 1.25 13.3977V13.4386H1.37094L1.41125 13.5203C1.5175 13.6152 1.60412 13.6436 1.8145 13.6429C1.74194 13.2861 1.52856 13.311 1.33063 13.1116C1.22813 13.0085 1.21438 12.8699 1.04838 12.8257L1.00806 12.7031H0.96775V12.5806L0.887125 12.5397L0.8065 12.2946H0.766187V12.2129H0.725875C0.714438 12.1656 0.798812 12.1411 0.766187 12.0496H0.725875V11.9681L0.64525 11.9272V11.8047H0.604813V11.6413H0.5645V11.4779H0.524188V11.2738L0.443563 11.2329V10.9469L0.362938 10.9061V10.7019L0.282313 10.661V10.375H0.322625C0.330083 10.353 0.330185 10.3291 0.322915 10.307C0.315645 10.2849 0.301397 10.2657 0.282313 10.2524V9.63994H0.322625V9.51737H0.362938L0.322625 9.354H0.362938V9.27231H0.40325V9.19063H0.44375V9.06806L0.524375 9.02719L0.564687 8.78213L0.645312 8.74125L0.685625 8.537L0.806562 8.49613L0.846875 8.33275L0.9275 8.29187L0.967812 8.1285L1.04844 8.08762V7.96506L1.29037 7.76081V7.67912L1.45169 7.55656V7.475L1.57263 7.43412L1.65325 7.35244V7.27075H1.69375L1.89538 7.02569H1.976C2.01831 6.82569 2.13694 6.73462 2.25825 6.61725L2.29856 6.53556L2.4195 6.49469V6.413L2.58063 6.33125V6.24956L2.86287 6.0045L2.9435 5.88194H3.02413L3.14519 5.71875H3.22581L3.30644 5.59619H3.38706L3.46769 5.47363H3.54831L3.58862 5.39194H3.66925L3.70956 5.31025H3.83063V5.26937L3.95156 5.2285V5.14669L4.0725 5.10581L4.27413 4.86075L4.47575 4.81987L4.63706 4.61562H4.71769L4.79831 4.49306L5.04025 4.41138L5.08056 4.32969L5.24188 4.28881L5.28219 4.20713H5.40312C5.52375 4.15025 5.52275 4.09069 5.72569 4.08456V3.96213C6.13194 3.94375 6.28313 3.62513 6.61281 3.55363V3.472C6.74172 3.43728 6.86423 3.38212 6.97569 3.30862V3.26775L7.21763 3.18606L7.25794 3.10437H7.33856L7.37887 3.02269L7.62081 2.941L7.66113 2.85931H7.74175L7.90306 2.65506H8.024V2.61419H8.10462L8.26594 2.40994L8.42725 2.36906L8.58856 2.124L8.75 2.08319L8.87094 1.91981H8.95156L8.99187 1.83812C9.1095 1.75687 9.15756 1.76356 9.23381 1.63388H9.31444V1.55219H9.39506V1.51131C9.45352 1.47703 9.50768 1.43588 9.55637 1.38875H9.59669V1.30712C9.76069 1.26387 9.7365 1.17812 9.83862 1.10287H9.91925L10.1612 0.776125H10.2418V0.694375L10.3628 0.6535V0.6125C10.444 0.540313 10.4897 0.536563 10.5241 0.40825H10.645L10.6853 0.6125L10.8062 0.694375L10.8466 0.898625L10.9272 0.9395V1.02119H10.9675V1.18456L11.0481 1.22544L11.0884 1.348H11.1287V1.51137H11.1691V1.59306L11.2497 1.63394V1.75625H11.29L11.3303 1.91963H11.3706L11.4109 2.12387H11.4513V2.2875L11.6126 2.41006C11.6505 2.51594 11.6776 2.62543 11.6932 2.73681H11.7738L11.8948 3.10444H11.9351L12.0157 3.47206C12.0887 3.61581 12.1989 3.71206 12.2174 3.92138H12.298C12.3471 4.16375 12.4778 4.32369 12.4996 4.57494C12.5803 4.59944 12.5342 4.56912 12.5802 4.61581H12.6206V4.73838L12.7012 4.77925V4.9425L12.8221 5.02419V5.10588H12.8624V5.26925H12.9028V5.35094L12.9834 5.39181V5.55519H13.0237V5.67775H13.064L13.1446 6.08619H13.1849V6.29044H13.2253V7.14825C13.3456 7.61563 13.2074 8.48463 13.0639 8.9455V9.15H13.0236V9.31338H12.9833V9.43594H12.9438V9.59931H12.9034V9.681H12.8631V9.7625L12.7825 9.80338V9.96675L12.7019 10.0076V10.2119H12.6616L12.6213 10.4161H12.5809V10.4978H12.5406V10.6204L12.46 10.6613V10.7429H12.4197L12.3391 10.988L12.2584 11.0289V11.1106L12.1374 11.1923V11.2739L12.0165 11.3556V11.4373L11.9359 11.4782V11.6007L11.6133 11.8867L11.573 12.0092H11.4924C11.449 12.1717 11.3254 12.2074 11.2504 12.336H11.1698C11.1419 12.4473 11.1151 12.4282 11.0892 12.5402H11.0086C10.9836 12.4096 10.8795 12.0831 10.8069 12.009C10.776 11.898 10.7972 11.9161 10.686 11.8864L10.7263 11.7639H10.686L10.6457 11.6005L10.5247 11.5188L10.4844 11.3146H10.4438C10.3759 11.1859 10.3571 11.1093 10.2018 11.0695V10.9875C10.1024 10.9602 10.0074 10.919 9.91956 10.8649V10.8241H9.71794V10.7832H9.55625V10.8241L9.07238 10.9058L9.03206 10.9874C8.95044 11.0582 8.90675 11.063 8.74981 11.0691V11.1508L8.62887 11.1917C8.58181 11.159 8.64531 11.1479 8.58856 11.1508L8.54825 11.2325L8.34663 11.2734V11.3142H8.266V11.3551H8.18538L8.14506 11.4368C8.07005 11.519 7.97147 11.5761 7.86281 11.6002C7.83356 11.7179 7.81944 11.7357 7.7015 11.7636C7.65412 11.9358 7.55262 11.9323 7.45956 12.0495H7.41925V12.1721H7.37894V12.2537H7.33862V12.3354H7.29831L7.258 12.458L7.17737 12.4989V12.7031H7.13706V12.8665H7.09675C7.08425 12.9346 7.13506 12.9383 7.13706 12.9482V13.8877L7.21769 13.9286V14.0919L7.29831 14.1328V14.2145L7.37894 14.2554C7.43775 14.3561 7.3685 14.3851 7.37894 14.4187H7.41925V14.5821H7.45956C7.50831 14.689 7.53819 14.7707 7.5805 14.8681C7.84691 14.8516 8.10736 14.7821 8.34663 14.6638H8.46756V14.6229H8.54819V14.5821H8.66919L8.87081 14.337H8.99181V14.2961H9.07244V14.2552H9.15306L9.19337 14.1736L9.395 14.1327L9.43531 14.051L9.63694 14.0101L9.67725 13.9284H9.75788L9.8385 13.8059L9.99981 13.765L10.1208 13.6016H10.2014L10.2821 13.4382H10.3627L10.4433 13.3157H10.5239L10.8062 12.9889H10.8868C10.9291 13.0975 10.9728 13.28 11.0077 13.3974V13.6016H11.0481L11.0077 14.6636H10.9674V14.7453H10.9271L10.8868 14.9496L10.8062 14.9904V15.0721H10.7659V15.1538H10.7256V15.2355H10.6853V15.3172L10.6046 15.3989V15.4812L10.4433 15.6038L10.403 15.7672L10.3224 15.8081V15.9306H10.2821V16.0123H10.2417V16.0938L10.0401 16.2571V16.3797L9.9595 16.4206V16.5023L9.83856 16.5839V16.6656L9.71762 16.7473V16.8699C9.71087 16.8818 9.65881 16.909 9.637 16.9516H9.55625C9.50819 17.1283 9.42956 17.0914 9.35462 17.1966V17.2783L9.274 17.3192L9.07238 17.6051H8.99175C8.93225 17.8206 8.72563 17.8645 8.66919 18.0953C8.56838 18.1226 8.60331 18.1164 8.54819 18.177H8.50788V18.2587L8.38694 18.3404V18.4625L8.266 18.5034V18.5443C8.1625 18.6351 8.08475 18.6923 8.02406 18.8302H7.94375C7.91219 18.9514 7.84931 18.9916 7.78244 19.0753H7.74213V19.1569H7.70181V19.2386H7.6615V19.3203L7.58087 19.3612C7.54894 19.4116 7.54894 19.5348 7.50025 19.5654H7.41962L7.37931 19.7288L7.29869 19.7697V19.8923C7.29244 19.9035 7.23956 19.9321 7.21806 19.9739L6.49225 19.7289L6.00838 19.688C5.95213 19.6976 6.02481 19.7317 5.96806 19.7289V19.688H5.6855V19.6472L4.75806 19.7698V19.8106H4.63713V19.8515H4.47581L4.39519 19.9741L4.19356 20.0149L4.15325 20.0966H4.03225L3.99194 20.1783H3.91131V20.2192L3.79037 20.2601V20.3417C3.72977 20.3526 3.67368 20.381 3.62906 20.4234V20.4643C3.49531 20.5535 3.43719 20.4687 3.38713 20.6686C3.20531 20.69 3.13144 20.7707 2.98388 20.8319L2.94356 20.9545C2.74231 21.0059 2.84644 21.0089 2.78225 21.1588H2.74194L2.70163 21.363H2.5V21.4856L2.37906 21.5264C2.40406 21.6255 2.42175 21.6163 2.45969 21.6898H2.5V21.7307H2.66131V21.7715L2.82262 21.8124V21.8533H3.06456L3.10488 21.9349H3.22581V21.9757H3.50806V22.0166H3.79031V22.0575H3.87094V22.0984H3.99187L4.03219 22.1801C4.12025 22.2332 4.26575 22.2113 4.35475 22.2617L4.43538 22.3843L4.59669 22.4251L4.637 22.5068H4.71763L4.91925 22.7519L5.12087 22.7927V22.8336L5.24181 22.9153V22.997C5.31909 23.0184 5.3889 23.0608 5.44344 23.1196V23.1604L5.56437 23.2013V23.2829L5.68531 23.3238L5.80631 23.4872H5.84662V23.5688L6.04825 23.6913V23.773C6.27606 23.8339 6.3695 24.1243 6.53212 24.2632V24.3449C6.77537 24.4103 6.805 24.6709 6.97587 24.7942C7.07331 24.8643 7.15294 24.8548 7.21781 24.9576H7.58069C7.59075 24.9599 7.59413 25.0096 7.66131 24.9984V24.9576H7.94375V24.9167L8.18569 24.8758C8.24281 24.6525 8.32075 24.7696 8.46794 24.6716L8.50825 24.5899C8.59117 24.527 8.68796 24.485 8.7905 24.4673V24.3856L8.87113 24.3447V24.3039H8.95175L9.11306 24.0997H9.19369L9.39531 23.8546H9.47594V23.8137L9.59688 23.7321V23.6504L9.7985 23.487L10.2423 22.9151H10.3229C10.3683 22.7381 10.4552 22.7739 10.5245 22.6701V22.5884H10.5648V22.5067L10.6454 22.4658L10.6858 22.3433H10.7664C10.7778 22.2466 10.8351 22.1002 10.8874 22.0573H10.968L11.0083 21.9756C11.0708 21.9161 11.1545 21.8786 11.2099 21.8123H11.2906L11.3309 21.6489H11.4115V21.5672L11.4921 21.5263C11.5701 21.4392 11.6598 21.3704 11.6938 21.2404C11.8305 21.2006 11.9962 21.0099 12.097 20.9136L12.1373 20.8319H12.2179L12.2583 20.7502H12.3389L12.4195 20.6277L12.6211 20.5868L12.7824 20.3826H12.8631V20.3417H12.9437V20.3008H13.0646L13.1049 20.2191L13.3066 20.1782L13.3469 20.0966H13.4678L13.5081 20.0149L13.7098 19.974L13.7501 19.8923H13.871L13.9113 19.8106H14.0726V19.7698C14.1758 19.6986 14.1737 19.6914 14.3549 19.6881V19.6063L14.5162 19.5654V19.6063C14.5599 19.5722 14.5777 19.4959 14.5968 19.4837H14.7177V19.4428C14.8528 19.3678 14.9573 19.3241 15 19.1569L14.6371 19.1978V19.1981ZM10.5243 12.989L10.4033 13.1524L10.2824 13.1932L10.2017 13.3158H10.1211L10 13.4795H9.91938L9.87906 13.5612L9.75813 13.6021V13.6429H9.6775L9.63719 13.7246C9.55272 13.7848 9.45656 13.8265 9.35494 13.8472V13.9289C9.21381 13.9622 9.13688 14.0357 9.03238 14.0922H8.95175V14.1331H8.87113V14.174H8.75L8.62906 14.3374H8.50813L8.46781 14.4191H8.38719V14.4599L8.18556 14.5008L8.14525 14.5825H7.82269C7.78738 14.4259 7.7155 14.32 7.70169 14.1332C7.62106 14.1087 7.66706 14.139 7.62106 14.0923H7.58075L7.54044 13.8472H7.5V13.643L7.41937 13.6021V13.5204H7.37906V13.4796H7.41937L7.37906 13.2345H7.41937V13.1119H7.45969L7.41937 12.8668C7.42137 12.8576 7.47081 12.8525 7.45969 12.7851C7.44063 12.7718 7.4264 12.7526 7.41913 12.7306C7.41186 12.7085 7.41195 12.6846 7.41937 12.6626L7.5 12.6217V12.54H7.54031L7.58063 12.3766H7.62094L7.66125 12.1724L7.82256 12.0498L7.86287 11.9681H7.9435L8.14513 11.6822H8.26606L8.34669 11.5596H8.508L8.58862 11.4371L8.9515 11.3145L8.99181 11.2328L9.11275 11.1919V11.1511L9.35469 11.1102V11.0693H9.47569V11.0284L9.55631 11.0693V11.0284C9.81369 11.0383 9.90631 11.1449 10.0402 11.2735L10.0805 11.3552H10.1611L10.2014 11.4369H10.2417V11.5594L10.3627 11.6411L10.403 11.7637H10.4433L10.4836 11.9679L10.5642 12.0088V12.1313L10.6449 12.1721V12.2947H10.6852V12.4172H10.7255C10.7763 12.5571 10.6929 12.5541 10.8061 12.6623C10.7907 12.9445 10.6643 12.8522 10.5239 12.9891" fill="#CBC4C2"/>
</g>
<defs>
<clipPath id="clip0_233_221">
<rect width="15" height="25" fill="white"/>
</clipPath>
</defs>
</svg>
